<?xml version="1.0" encoding="utf-8"?>
<!-- Generator: Adobe Illustrator 26.3.1, SVG Export Plug-In . SVG Version: 6.00 Build 0)  -->
<svg version="1.1" id="Laag_1" xmlns="http://www.w3.org/2000/svg" xmlns:xlink="http://www.w3.org/1999/xlink" x="0px" y="0px"
	 viewBox="0 0 228.7 429" style="enable-background:new 0 0 228.7 429;" xml:space="preserve">
<style type="text/css">
	.st0{fill:#B9833B;}
	.st1{fill:#CB9B5B;}
	.st2{fill:#CB9B5B;stroke:#B9833B;stroke-width:2;stroke-linejoin:round;}
	.st3{fill:none;}
	.st4{fill:#CB9B5B;stroke:#B9833B;stroke-width:2;stroke-miterlimit:10;}
	.st5{fill:#E3E4DE;}
	.st6{fill:none;stroke:#AFB49F;stroke-linecap:round;stroke-linejoin:round;}
</style>
<g id="book-stand">
	<path class="st0" d="M154.1,380.7c6.5-2.7,13.1-5.3,19.9-7.9c7-2.7,13.9-5.3,20.7-7.8c-0.1-1.3-0.1-2.7-0.1-4.2c0-1.4,0-2.7,0.1-4
		c-8.6-5.8-17.2-11.5-25.9-17.3c-2.4,1.4-6.5,3.4-12,4c-8.5,0.9-15-2.2-17.5-3.6c-0.7,0.3-1.9,0.5-2.6,0.9l-3.1,1.3l1.9,4.3
		l-43.7-7.8c-3.8,7.8-10.3,18.3-19.8,27.5c-11.8,11.4-23.7,16.8-30.2,19.7c-5.1,2.3-9.5,3.8-12.8,4.9c-0.2,3.2-0.3,6.4-0.5,9.6
		c7.7,6.5,15.4,13,23.1,19.6c4.4-1.7,51.5-20.5,54.6-21.1c1.1-0.2,2,0,2,0c1.7,0.4,2.8,1.4,3.1,1.7c1.7,1.6,15.9,12.9,36.1,28.8
		l36.4-14.1c0.2-2.9,0.3-5.5,0.5-8.3c-11.6-7.4-20.1-14.7-25.8-20.5C156.9,384.4,155.5,382.7,154.1,380.7L154.1,380.7z M144.4,363.2
		c-3-5.8-5.6-10.9-7.6-15.3l0,0c2.5,5.2,5.1,10.5,8,16c2.8,5.4,5.7,10.5,8.5,15.5C150.8,375.5,148.2,370.4,144.4,363.2L144.4,363.2z
		"/>
	<path class="st1" d="M1.3,18.7c28.5,32.4,57,64.8,85.4,97.1l141.9-29.1L141.2,0C94.6,6.2,47.9,12.5,1.3,18.7z"/>
	<path class="st0" d="M218.8,117.9c3,1.6,5.9,3.2,8.9,4.7c-24,5.6-47.9,11.2-71.9,16.9c-23.7,5.6-47.5,11.3-71.2,17.1
		c-27.3-14-54.5-28-81.8-42c2.3-0.6,4.6-1.2,6.9-1.8c25.2,13.3,50.3,26.6,75.5,39.9C129.8,141.1,174.3,129.5,218.8,117.9
		L218.8,117.9z"/>
	<path class="st0" d="M87.4,115.3c-1.3,1.5-1.8,3.6-3.1,5.1C56.5,88.7,27.9,56.3,0,24.6C0,23.9,0,23.1,0.1,22.1
		c0.2-1.2,0.9-2.6,1.2-3.4L87.4,115.3z"/>
	<path class="st2" d="M81.2,96.5L81.2,96.5c0-0.3,0.1-0.7,0.2-1.2c0.1-0.3,0.5-1.8,1.5-3.3c1.3-1.9,2.8-2.9,4-3.7
		c1.1-0.7,2.7-1.6,4.8-2.2c16.2-3.3,32.5-6.6,48.7-9.8c21.1-4.1,42.3-8.1,63.4-12.1l0,0c0,0,8.5-1.5,8.9,4.3
		c0.3,5.8-1.5,7.2-1.5,7.2l-126.1,26L81.2,96.5L81.2,96.5z"/>
	<path class="st0" d="M84.9,101.4c0.2-3,1.1-6.7,3.8-9.3c2.6-2.6,5.9-3.1,7-3.3c6.2-1.1,108.4-20.6,112-21.6
		c0.4-0.1,2.1-0.7,3.7,0.1c0.3,0.2,0.5,0.3,0.7,0.5c0.5,0.5,0.6,1,0.7,1c0.1,0,0.1-1.2-0.5-2.2c-0.9-1.6-2.9-2.1-3.7-2.3
		c-1.6-0.4-2.8-0.2-4.1,0c-2,0.3-4.6,0.7-7.6,1.3c-8.2,1.7-92.2,17.3-104.7,20.5c-0.5,0.1-2.4,0.6-4.6,1.9c-1.4,0.8-3.6,2.1-5.1,4.6
		c-0.9,1.5-1,3.3-1.2,4.2c0.6,0.8,0.9,1.1,1.4,1.9C83.5,99.6,84.2,100.5,84.9,101.4L84.9,101.4z"/>
	<path class="st0" d="M2.9,114.6c0,1.5,0,2.9,0,4.4c8.6,4.3,17.2,8.8,25.8,13.2c19.1,9.9,37.9,19.8,56.4,29.7v-5.5
		C57.7,142.5,30.3,128.6,2.9,114.6z"/>
	<path class="st0" d="M85.1,162c26.1-6.7,52.6-13.3,79.6-19.7c21.2-5.1,42.3-9.9,63.2-14.6c0-1.7,0-3.4-0.1-5
		c-28.6,6.4-57.4,13.1-86.5,20.1c-18.9,4.5-37.6,9-56.2,13.7V162L85.1,162z"/>
	<path class="st0" d="M139.1,148.2c-0.6,60.7-1.2,121.4-1.8,182.2c-9.4,3.3-18.7,6.6-28.1,9.9l-19.1-15
		c-0.3-55.2-0.6-110.4-0.9-165.6C105.9,155.9,122.5,152,139.1,148.2L139.1,148.2z"/>
	<path class="st0" d="M90.2,325.3c-2.2,2-4.4,4-6.6,5.9c8.2,7.1,16.4,14.3,24.7,21.5c12.1-5.1,24.3-10.3,36.4-15.4
		c-2.4-2.3-4.9-4.6-7.3-6.9c-9.2,3.2-18.5,6.5-27.7,9.7C103.1,335.2,96.6,330.2,90.2,325.3L90.2,325.3z"/>
	<path class="st0" d="M84,331.9c-11,3.9-22.5,7.9-33.5,11.7v8.8c6.5,5,13,9.9,19.5,14.9l8.3-8l13.8-20.6L84,331.9L84,331.9z"/>
	<path class="st1" d="M90.9,340.3c-2.8,2.1-8.7,5.8-15.9,7.2c-3.3,0.6-14.3,2.9-23.3-3.1c-0.5-0.3-0.9-0.6-1.2-0.9l33.7-11.8
		c2.6,2.3,5.3,4.6,7.9,6.9C91.7,339.2,91.3,339.8,90.9,340.3L90.9,340.3z"/>
	<path class="st3" d="M111.3,351.8c2.7,11.1,7.5,26,16.7,41.8c6.7,11.6,14.1,20.7,20.4,27.6c-0.1,2.9-0.2,3.4-0.4,4.7
		c-0.2,2.2-0.1,2.8-0.2,2.9c-0.6,0.7-9.6-5.7-40.9-31.3c0.5-14.9,1.1-29.8,1.6-44.7C109.6,352.5,110.5,352.2,111.3,351.8
		L111.3,351.8z"/>
	<path class="st3" d="M184.4,407.1c-8.9,3.7-17.9,7.4-27,11.1c-3,1.2-5.9,2.4-8.9,3.6"/>
	<path class="st3" d="M108.7,353.4c-5.2,10-13.9,23.8-27.9,37.1c-10.4,9.9-20.7,16.6-28.9,21.1l-0.1,7.8c18.5-7,37-13.9,55.5-20.9
		C107.7,383.5,108.2,368.4,108.7,353.4L108.7,353.4z"/>
	<path class="st1" d="M51.7,412.1c-7.7-7.3-15.4-14.6-23.1-21.9c10.1-3,17.8-6.9,23.2-10C72,368.3,83,352.3,87.3,345.8
		c2-3,3.5-5.6,4.6-7.4c5.5,4.9,11.1,9.9,16.6,14.8c-5.8,9.7-14.2,21.7-26.2,33.9C71.4,398.2,60.7,406.3,51.7,412.1L51.7,412.1z"/>
	<path class="st1" d="M111.3,351.5c7.4-3.2,14.8-6.4,22.3-9.5c4,9.1,7.9,16.3,10.8,21.2c6.4,10.9,12.7,21.4,24,31.6
		c6.3,5.7,12.2,9.5,16,11.8l-35.7,15.1c-6.6-7.2-14.4-17-21.5-29.6C118.5,376.6,113.9,362.3,111.3,351.5L111.3,351.5z"/>
	<path class="st1" d="M136.9,340.5c0.4-0.1,0.7-0.3,1.1-0.5c0.4-0.2,0.7-0.3,1.1-0.5c2.3,1.2,5.5,2.5,9.4,3.1
		c9.4,1.4,16.9-2.2,19.8-3.8c8.8,5.9,17.6,11.8,26.3,17.7c-5.4,1.3-17.2,3.4-31.3-0.7C149.6,352.1,140.8,344.4,136.9,340.5
		L136.9,340.5z"/>
	<path class="st0" d="M228.7,86.7c0,0.6,0.1,1.2,0.1,1.9c0,0.7,0,1.4-0.1,2.1c-48.2,10.1-96.5,20.2-144.7,30.4
		c0.9-1.7,2.2-4,3.1-5.8c23.6-4.9,47.1-9.7,70.7-14.4C181.4,96.2,205,91.4,228.7,86.7L228.7,86.7z"/>
	<path class="st4" d="M85.3,120.4v32.4c44.6-10.5,89.2-21.1,133.7-31.6c0.4-9.7,0.9-19.5,1.3-29.2L85.3,120.4L85.3,120.4z"/>
	<path class="st0" d="M160.8,116.7c-0.2-0.3-1.5-2.4-3.8-2.5c-2.7-0.1-4.8,2.7-5.3,5.1c-0.1,0.3-0.9,4.2,1.7,5.9
		c2.1,1.3,4.9,0.3,6.4-1.2C161.7,122.1,162.1,118.9,160.8,116.7L160.8,116.7z"/>
	<path class="st1" d="M7.3,32.9C8.1,59.6,9,86.4,9.8,113.2c25.2,13.2,50.3,26.4,75.5,39.6v-31.8C59.3,91.6,33.3,62.2,7.3,32.9z"/>
</g>
<g id="book">
	<path class="st5" d="M97.1,24.8c-2-1.6-5.5-3.9-10.2-4.7c-7.5-1.2-14.1,2.6-23.3,7c-7.2,3.5-10.3,5.6-18.4,8.6
		c-2.9,1.1-5.4,1.9-7,2.4c15.1,16.7,31.2,35.3,46.3,52c0,0,3.7-3.4,10.1-4.7c6.4-1.2,98.8-19.4,98.8-19.4
		c-32.6-32.8-45.1-44.3-46.4-44.2c0,0-0.9,0.1-2.2,0.1c0,0-1.1,0-2.3-0.1c-4.1-0.3-27.2-8.6-39.6-2.1
		C101.5,20.5,99.3,21.9,97.1,24.8L97.1,24.8z"/>
	<path class="st6" d="M97,24.6c15.9,16.5,32.3,33.9,48.2,50.4"/>
</g>
</svg>
